<svg xmlns="http://www.w3.org/2000/svg" viewBox="0 0 584.76 592.78"><defs><style>.cls-1,.cls-2,.cls-3,.cls-4,.cls-6{fill:none;stroke-miterlimit:10;}.cls-1{stroke:#6d6d6e;}.cls-2{stroke:#5b98ae;}.cls-3{stroke:#6aaabc;}.cls-4{stroke:#e9c031;}.cls-5{fill:#323234;}.cls-6{stroke:#4d85ad;}.cls-7{fill:#edf2f7;}</style></defs><title>logo-icone</title><g id="Camada_2" data-name="Camada 2"><g id="Camada_1-2" data-name="Camada 1"><path class="cls-1" d="M231.12,255.22a23.67,23.67,0,0,1-6.81-13.45c-.64-5.47,1.21-9.57,3.58-14.64,5-10.66,9.32-10.37,15.15-20.93a46.76,46.76,0,0,1,6.63-8.51c2.14-2.25,3.12-2.9,4.26-3.07,3.5-.5,6.82,3.78,8.34,5.79,14.07,18.58,21.1,27.87,23.15,33.7a72,72,0,0,1-12.26,71.83,67.49,67.49,0,0,1-.68-14,28,28,0,0,0-.34-8.34,19.9,19.9,0,0,0-2.38-6.46c-2-3.22-4.87-4.58-10.21-7-11.38-5.12-15.83-6.77-22-10.39C233.26,257.26,231.85,255.94,231.12,255.22Z"/><path class="cls-1" d="M210.36,262.37a14.3,14.3,0,0,1,8.17-2.56c1.69,0,3.46.43,8.68,3.24,6.24,3.36,6.59,4.36,12.76,7.83s8.85,4.93,8.85,4.93c4.77,2.61,6.1,3.27,6.3,4.6.39,2.62-4,5.31-7.66,7.49A62.14,62.14,0,0,1,232,294.54c-17.48,4.4-28.13,7.09-33.53,1.36-3.64-3.86-3.29-9.85-3.23-10.9.26-4.6,2.5-7.74,5.95-12.59A56.36,56.36,0,0,1,210.36,262.37Z"/><circle class="cls-1" cx="199.8" cy="203.47" r="10.21"/><path class="cls-2" d="M366.7,63.92c-98-67.8-201.11-27.17-201.11-27.17,228.21,69,147,285.72,134.09,316.51,21.19-23.37,75.61-88.77,87.27-155.66C395.65,147.68,387.92,101.59,366.7,63.92Z"/><path class="cls-3" d="M474.27,163.9s2.41-30,1.46-62.93C419.12,13.93,306.53.75,306.53.75A179,179,0,0,1,366.7,63.92c21.22,37.67,28.95,83.76,20.25,133.68-11.66,66.89-66.08,132.29-87.27,155.66-5.26,5.8-8.47,9-8.47,9C358.61,342.37,451.29,249.69,474.27,163.9Z"/><path class="cls-4" d="M142.5,355.25l.11.14-.12-.06v.06l-.1-.11c-3.34-1.59-44.1-22.14-77.13-93.34L45.33,288.75s-4.59,82,19.15,101.11l6.13-31.41S102.78,452.66,184,475.64s215.24,29.11,331.66-85c51.32-78.89,39.83-175.4,39.83-175.4-11.49,39.06-53.62,86.55-53.62,86.55C563.89,132.49,471.21,53.6,471.21,53.6,474,68,475.26,84.82,475.73,101c.95,32.93-1.46,62.93-1.46,62.93-23,85.79-115.66,178.47-183.06,198.38s-101.88-65.1-101.88-65.1S146.65,306.35,142.5,355.25Z"/><path class="cls-1" d="M121.16,280.32C113.77,321,140.59,353,142.5,355.25c4.15-48.9,46.83-58.07,46.83-58.07-35.49-46.73-19.91-72.77-19.91-72.77S128.82,238.2,121.16,280.32Z"/><path class="cls-5" d="M142.49,355.33l-.11-.05.1.11Z"/><path class="cls-6" d="M583.8,296.41c-29.1,66.64-68.17,94.21-68.17,94.21-116.42,114.13-250.47,108-331.66,85S70.61,358.45,70.61,358.45l-6.13,31.41C40.74,370.71,45.33,288.75,45.33,288.75l19.92-26.81c33,71.2,73.79,91.75,77.13,93.34l.11.05.12.06-.11-.14c-1.91-2.21-28.73-34.29-21.34-74.93,7.66-42.12,48.26-55.91,48.26-55.91-6.89-6.89-13-20.68-6.13-29.11s26.81-6.89,26.81-6.89l.77-6.13s.76-2.3,6.12-2.3,46.73-3.06,46.73-3.06c-24.51-33.7-72-32.17-72-32.17C77.5,158.54,15.46,220.58,2.44,311S42.27,509.35,151,559.9s202.21,26.81,202.21,26.81C605.25,517.77,583.8,296.41,583.8,296.41Z"/><circle class="cls-7" cx="201.84" cy="200.54" r="3.96"/></g></g></svg>